<?xml version="1.0" encoding="UTF-8" standalone="no"?>
<!-- Created with Inkscape (http://www.inkscape.org/) -->

<svg
   width="58.629379mm"
   height="73.525215mm"
   viewBox="0 0 58.629379 73.525215"
   version="1.1"
   id="svg5"
   sodipodi:docname="edo365_logo.svg"
   inkscape:version="1.2.1 (9c6d41e, 2022-07-14)"
   xmlns:inkscape="http://www.inkscape.org/namespaces/inkscape"
   xmlns:sodipodi="http://sodipodi.sourceforge.net/DTD/sodipodi-0.dtd"
   xmlns="http://www.w3.org/2000/svg"
   xmlns:svg="http://www.w3.org/2000/svg">
  <sodipodi:namedview
     id="namedview7"
     pagecolor="#ffffff"
     bordercolor="#000000"
     borderopacity="0.25"
     inkscape:showpageshadow="2"
     inkscape:pageopacity="0.0"
     inkscape:pagecheckerboard="0"
     inkscape:deskcolor="#d1d1d1"
     inkscape:document-units="mm"
     showgrid="false"
     inkscape:zoom="1.1291722"
     inkscape:cx="-72.176768"
     inkscape:cy="187.30536"
     inkscape:window-width="1512"
     inkscape:window-height="855"
     inkscape:window-x="0"
     inkscape:window-y="38"
     inkscape:window-maximized="0"
     inkscape:current-layer="svg5" />
  <defs
     id="defs2">
    <inkscape:perspective
       sodipodi:type="inkscape:persp3d"
       inkscape:vp_x="-2.4879275 : -42.631732 : 1"
       inkscape:vp_y="0 : 1000 : 0"
       inkscape:vp_z="207.51207 : -42.631732 : 1"
       inkscape:persp3d-origin="102.51207 : -92.131733 : 1"
       id="perspective1000" />
    <inkscape:perspective
       sodipodi:type="inkscape:persp3d"
       inkscape:vp_x="63.266134 : -74.197792 : 1"
       inkscape:vp_y="0 : 264.58333 : 0"
       inkscape:vp_z="118.82863 : -74.197792 : 1"
       inkscape:persp3d-origin="91.047383 : -87.294663 : 1"
       id="perspective1000-0" />
    <inkscape:perspective
       sodipodi:type="inkscape:persp3d"
       inkscape:vp_x="63.888116 : -81.661583 : 1"
       inkscape:vp_y="0 : 264.58333 : 0"
       inkscape:vp_z="119.45061 : -81.661583 : 1"
       inkscape:persp3d-origin="91.669367 : -94.758453 : 1"
       id="perspective1000-2" />
    <inkscape:perspective
       sodipodi:type="inkscape:persp3d"
       inkscape:vp_x="64.510098 : -88.192383 : 1"
       inkscape:vp_y="0 : 264.58333 : 0"
       inkscape:vp_z="120.0726 : -88.192383 : 1"
       inkscape:persp3d-origin="92.291349 : -101.28925 : 1"
       id="perspective1000-9" />
  </defs>
  <g
     id="g1483"
     style="stroke:none"
     transform="translate(-69.777745,-56.428561)">
    <path
       id="rect1294-3-7"
       style="fill:#3b528c;fill-opacity:1;stroke:none;stroke-width:0.952537"
       d="m 69.937333,109.28015 c -0.585173,4.29756 0.452907,10.32192 2.884062,11.3497 l 19.131649,8.08787 c 3.898444,1.64808 10.175616,1.64808 14.074076,0 l 19.13165,-8.08787 c 2.43115,-1.02778 3.46923,-7.05214 2.88406,-11.3497 -0.19721,0.94968 -1.15748,1.87665 -2.88406,2.60656 l -19.13165,8.08788 c -3.89846,1.64808 -10.175632,1.64808 -14.074076,0 l -19.131649,-8.08788 c -1.726576,-0.72991 -2.686847,-1.65688 -2.884062,-2.60656 z"
       sodipodi:nodetypes="ccccccsccsc" />
    <path
       id="path1479"
       style="display:inline;fill:#4b67b0;fill-opacity:1;stroke:none;stroke-width:0.952537"
       d="m 106.02698,97.849099 19.13163,8.087961 c 3.89845,1.64808 3.89845,4.30167 0,5.94975 l -19.13163,8.08795 c -3.89846,1.64808 -10.175396,1.64808 -14.073844,0 l -19.131637,-8.08795 c -3.898447,-1.64808 -3.89845,-4.30167 4e-6,-5.94975 l 19.13163,-8.087959 c 3.898455,-1.648081 10.175397,-1.648081 14.073847,-2e-6 z"
       inkscape:label="rect1294-3" />
  </g>
  <path
     id="path1488-7"
     style="display:inline;fill:#000000;fill-opacity:0.407821;stroke:none;stroke-width:0.734919"
     d="m 35.403563,41.197109 14.68919,6.27059 c 2.99321,1.27776 2.99321,3.33509 0,4.61284 l -14.68919,6.27059 c -2.99322,1.27776 -7.812628,1.27776 -10.80584,0 L 9.9085292,52.080539 c -2.993212,-1.27775 -2.993215,-3.33508 3e-6,-4.61284 L 24.59772,41.197109 c 2.993218,-1.27776 7.812633,-1.27776 10.805843,0 z"
     inkscape:label="rect1294-3" />
  <g
     id="g1490"
     style="stroke:none"
     transform="translate(-69.573037,-75.705401)">
    <path
       id="path1486"
       style="fill:#365034;fill-opacity:1;stroke:none;stroke-width:0.952537"
       d="m 69.937333,109.28015 c -0.585173,4.29756 0.452907,10.32192 2.884062,11.3497 l 19.131649,8.08787 c 3.898444,1.64808 10.175616,1.64808 14.074076,0 l 19.13165,-8.08787 c 2.43115,-1.02778 3.46923,-7.05214 2.88406,-11.3497 -0.19721,0.94968 -1.15748,1.87665 -2.88406,2.60656 l -19.13165,8.08788 c -3.89846,1.64808 -10.175632,1.64808 -14.074076,0 l -19.131649,-8.08788 c -1.726576,-0.72991 -2.686847,-1.65688 -2.884062,-2.60656 z"
       sodipodi:nodetypes="ccccccsccsc" />
    <path
       id="path1488"
       style="display:inline;fill:#4a6f48;fill-opacity:1;stroke:none;stroke-width:0.952537"
       d="m 106.02698,97.849099 19.13163,8.087961 c 3.89845,1.64808 3.89845,4.30167 0,5.94975 l -19.13163,8.08795 c -3.89846,1.64808 -10.175396,1.64808 -14.073844,0 l -19.131637,-8.08795 c -3.898447,-1.64808 -3.89845,-4.30167 4e-6,-5.94975 l 19.13163,-8.087959 c 3.898455,-1.648081 10.175397,-1.648081 14.073847,-2e-6 z"
       inkscape:label="rect1294-3" />
  </g>
  <path
     id="path1488-7-5"
     style="display:inline;fill:#000000;fill-opacity:0.407821;stroke:none;stroke-width:0.61175"
     d="m 36.919272,27.634425 12.13143,5.260946 c 2.47201,1.072025 2.47201,2.798095 0,3.870115 l -12.13143,5.26094 c -2.47202,1.07203 -6.452245,1.07203 -8.924259,0 l -12.131429,-5.26094 c -2.472015,-1.07202 -2.472015,-2.79809 8e-6,-3.870115 l 12.131421,-5.260946 c 2.472024,-1.072024 6.452249,-1.072024 8.924259,0 z"
     inkscape:label="rect1294-3" />
  <g
     id="g1496"
     style="stroke:none"
     transform="matrix(0.67464809,0,0,0.7954493,-32.129746,-76.850775)">
    <path
       id="path1492"
       style="fill:#8d85b7;fill-opacity:1;stroke:none;stroke-width:0.952537"
       d="m 69.937333,109.28015 c -0.585173,4.29756 0.452907,10.32192 2.884062,11.3497 l 19.131649,8.08787 c 3.898444,1.64808 10.175616,1.64808 14.074076,0 l 19.13165,-8.08787 c 2.43115,-1.02778 3.46923,-7.05214 2.88406,-11.3497 -0.19721,0.94968 -1.15748,1.87665 -2.88406,2.60656 l -19.13165,8.08788 c -3.89846,1.64808 -10.175632,1.64808 -14.074076,0 l -19.131649,-8.08788 c -1.726576,-0.72991 -2.686847,-1.65688 -2.884062,-2.60656 z"
       sodipodi:nodetypes="ccccccsccsc" />
    <path
       id="path1494"
       style="display:inline;fill:#aba5ca;fill-opacity:1;stroke:none;stroke-width:0.952537"
       d="m 106.02698,97.849099 19.13163,8.087961 c 3.89845,1.64808 3.89845,4.30167 0,5.94975 l -19.13163,8.08795 c -3.89846,1.64808 -10.175396,1.64808 -14.073844,0 l -19.131637,-8.08795 c -3.898447,-1.64808 -3.89845,-4.30167 4e-6,-5.94975 l 19.13163,-8.087959 c 3.898455,-1.648081 10.175397,-1.648081 14.073847,-2e-6 z"
       inkscape:label="rect1294-3" />
  </g>
</svg>
