<?xml version="1.0" encoding="UTF-8" standalone="no"?>
<svg
   width="189.56517mm"
   height="38.83226mm"
   viewBox="0 0 189.56517 38.83226"
   version="1.1"
   fill="none"
   stroke="#000000"
   stroke-width="0.529167"
   id="edo365-logo-text"
   xmlns="http://www.w3.org/2000/svg"
   xmlns:svg="http://www.w3.org/2000/svg">
  <g
     id="layer1"
     transform="translate(-9.8030195,-92.892005)">
    <g
       aria-label="edo365"
       id="text999">
      <path
         id="path1159"
         d="m 24.647074,103.1136 c -2.777064,0 -5.26643,0.60963 -7.467761,1.82883 -2.201331,1.18533 -3.945307,2.84439 -5.232239,4.97799 -1.253065,2.09973 -1.879471,4.52148 -1.879471,7.26468 0,2.70933 0.643182,5.13055 1.930114,7.26415 1.286932,2.09973 3.099047,3.75931 5.435844,4.97851 2.370664,1.2192 5.113742,1.82883 8.229472,1.82883 2.472264,0 4.656557,-0.3727 6.553088,-1.11776 1.896532,-0.77894 3.471711,-1.87921 4.724777,-3.30161 l -4.216797,-4.57233 c -0.914399,0.88053 -1.930277,1.54101 -3.047876,1.98127 -1.083732,0.44027 -2.353838,0.66043 -3.810104,0.66043 -1.625598,0 -3.047724,-0.28778 -4.266923,-0.86352 -1.185332,-0.60959 -2.116812,-1.47345 -2.794144,-2.59105 -0.350383,-0.627 -0.604704,-1.3045 -0.764295,-2.03192 h 20.677808 c 0.03387,-0.33867 0.06794,-0.69407 0.101802,-1.0666 0.03387,-0.4064 0.05064,-0.76232 0.05064,-1.06712 0,-2.9464 -0.626406,-5.46931 -1.879471,-7.56905 -1.253066,-2.13359 -2.963489,-3.7591 -5.130953,-4.8767 -2.133598,-1.15147 -4.53805,-1.72703 -7.213514,-1.72703 z m 0.05064,5.99447 c 1.354666,0 2.540373,0.30456 3.556372,0.91415 1.015999,0.57574 1.811719,1.38875 2.387452,2.43862 0.382116,0.6968 0.636824,1.4759 0.765327,2.3368 H 17.949292 c 0.131805,-0.84645 0.383049,-1.60885 0.754476,-2.28616 0.575733,-1.08373 1.371452,-1.91352 2.387451,-2.48926 1.049866,-0.60959 2.251833,-0.91415 3.606498,-0.91415 z" />
      <path
         id="path1161"
         d="m 64.067924,93.156588 v 13.216252 c -0.62934,-0.68883 -1.339805,-1.26829 -2.13372,-1.7353 -1.727198,-1.016 -3.742178,-1.52394 -6.045109,-1.52394 -2.573864,0 -4.893917,0.57556 -6.959782,1.72703 -2.065864,1.15146 -3.708149,2.77697 -4.927348,4.8767 -1.185332,2.09974 -1.778186,4.5891 -1.778186,7.46777 0,2.84479 0.592854,5.31687 1.778186,7.4166 1.219199,2.09973 2.861484,3.74253 4.927348,4.92786 2.065865,1.15147 4.385918,1.72703 6.959782,1.72703 2.404531,0 4.45358,-0.50794 6.146912,-1.52394 0.908808,-0.53459 1.703674,-1.21596 2.387451,-2.04122 v 3.15898 h 7.569047 V 93.156588 Z m -6.807336,16.459462 c 1.286932,0 2.455346,0.30455 3.505212,0.91415 1.049866,0.6096 1.879654,1.47346 2.489254,2.59106 0.643466,1.1176 0.965315,2.4721 0.965315,4.06384 0,1.55786 -0.321849,2.91236 -0.965315,4.06383 -0.6096,1.1176 -1.439388,1.98146 -2.489254,2.59106 -1.049866,0.6096 -2.21828,0.91415 -3.505212,0.91415 -1.320799,0 -2.50599,-0.30455 -3.555856,-0.91415 -1.049865,-0.6096 -1.89643,-1.47346 -2.539896,-2.59106 -0.6096,-1.15147 -0.914673,-2.50597 -0.914673,-4.06383 0,-1.59174 0.305073,-2.94624 0.914673,-4.06384 0.643466,-1.1176 1.490031,-1.98146 2.539896,-2.59106 1.049866,-0.6096 2.235057,-0.91415 3.555856,-0.91415 z" />
      <path
         id="path1163"
         d="m 92.312712,103.1136 c -2.912531,0 -5.503588,0.60963 -7.772653,1.82883 -2.235197,1.18533 -4.013242,2.84439 -5.334041,4.97799 -1.286931,2.09973 -1.930115,4.52148 -1.930115,7.26468 0,2.70933 0.643184,5.13055 1.930115,7.26415 1.320799,2.09973 3.098844,3.75931 5.334041,4.97851 2.269065,1.2192 4.860122,1.82883 7.772653,1.82883 2.878663,0 5.452426,-0.60963 7.721488,-1.82883 2.26907,-1.2192 4.04711,-2.87878 5.33405,-4.97851 1.28693,-2.1336 1.93063,-4.55482 1.93063,-7.26415 0,-2.77707 -0.6437,-5.21559 -1.93063,-7.31532 -1.28694,-2.09973 -3.06498,-3.74202 -5.33405,-4.92735 -2.269062,-1.2192 -4.842825,-1.82883 -7.721488,-1.82883 z m 0,6.50245 c 1.320798,0 2.505989,0.30455 3.555855,0.91415 1.049866,0.6096 1.879654,1.47346 2.489254,2.59106 0.609599,1.1176 0.914672,2.4721 0.914672,4.06384 0,1.55786 -0.305073,2.91236 -0.914672,4.06383 -0.6096,1.1176 -1.439388,1.98146 -2.489254,2.59106 -1.049866,0.6096 -2.235057,0.91415 -3.555855,0.91415 -1.320799,0 -2.50599,-0.30455 -3.555856,-0.91415 -1.049865,-0.6096 -1.896947,-1.47346 -2.540413,-2.59106 -0.6096,-1.15147 -0.914156,-2.50597 -0.914156,-4.06383 0,-1.59174 0.304556,-2.94624 0.914156,-4.06384 0.643466,-1.1176 1.490548,-1.98146 2.540413,-2.59106 1.049866,-0.6096 2.235057,-0.91415 3.555856,-0.91415 z" />
      <path
         id="path1165"
         d="m 109.54318,95.290308 v 6.603732 h 15.12983 l -7.30653,8.28063 V 115.61 h 3.75946 c 2.3368,0 4.02993,0.38947 5.07979,1.1684 1.04987,0.77893 1.57458,1.84617 1.57458,3.20084 0,1.4224 -0.59233,2.53997 -1.77767,3.35277 -1.18533,0.8128 -2.81084,1.21904 -4.8767,1.21904 -1.8288,0 -3.64091,-0.28778 -5.43584,-0.86351 -1.79494,-0.57573 -3.3696,-1.35468 -4.72426,-2.33681 l -3.20032,6.29884 c 1.69333,1.2192 3.75915,2.16797 6.19755,2.84531 2.4384,0.64346 4.89369,0.9648 7.36596,0.9648 3.38666,0 6.16381,-0.5415 8.33127,-1.62523 2.16747,-1.08373 3.7762,-2.4896 4.82606,-4.21679 1.04987,-1.76107 1.57459,-3.64029 1.57459,-5.63842 0,-3.08186 -1.11757,-5.6053 -3.35277,-7.56956 -1.56514,-1.37543 -3.65399,-2.26866 -6.26525,-2.68098 l 7.99228,-9.10435 v -5.334042 z" />
      <path
         id="path1167"
         d="m 158.00638,94.680526 c -3.556,0 -6.70533,0.74539 -9.44852,2.235522 -2.70933,1.490132 -4.8433,3.657132 -6.40116,6.501932 -1.524,2.84479 -2.28565,6.31649 -2.28565,10.41435 0,3.82693 0.64318,7.04439 1.93011,9.65212 1.28694,2.60773 3.11583,4.58864 5.48649,5.94331 2.40453,1.35466 5.23252,2.03192 8.48372,2.03192 2.54,0 4.80921,-0.47387 6.80734,-1.42214 2.03199,-0.98213 3.64021,-2.35393 4.82554,-4.11499 1.2192,-1.79494 1.82883,-3.89483 1.82883,-6.29936 0,-2.2352 -0.55878,-4.18256 -1.67638,-5.84202 -1.08373,-1.65947 -2.53993,-2.94635 -4.36873,-3.86075 -1.8288,-0.9144 -3.89462,-1.37149 -6.19755,-1.37149 -1.69333,0 -3.25122,0.23693 -4.67362,0.71107 -1.38853,0.44026 -2.5905,1.11803 -3.6065,2.03243 -0.17074,0.14798 -0.33587,0.30261 -0.49609,0.46302 0.10965,-3.30886 1.00285,-5.83433 2.68046,-7.57525 1.79493,-1.86266 4.23293,-2.79414 7.31479,-2.79414 1.2192,0 2.38762,0.13576 3.50522,0.40669 1.1176,0.23707 2.16754,0.69416 3.14968,1.3715 l 3.04787,-6.045113 c -1.25306,-0.8128 -2.74281,-1.42243 -4.47001,-1.828829 -1.7272,-0.4064 -3.53931,-0.609782 -5.43584,-0.609782 z m -2.79415,20.015314 c 1.8288,0 3.28551,0.49116 4.36924,1.4733 1.1176,0.94826 1.67639,2.23514 1.67639,3.86074 0,1.04987 -0.25423,1.98135 -0.76223,2.79415 -0.508,0.8128 -1.21932,1.4392 -2.13372,1.87947 -0.88053,0.4064 -1.89641,0.60926 -3.04788,0.60926 -1.32079,0 -2.43836,-0.21964 -3.35276,-0.6599 -0.9144,-0.47414 -1.62572,-1.10106 -2.13372,-1.87999 -0.508,-0.8128 -0.76171,-1.72699 -0.76171,-2.74299 0,-1.04986 0.25371,-1.96457 0.76171,-2.7435 0.54186,-0.8128 1.26996,-1.4392 2.18436,-1.87947 0.9144,-0.47413 1.98112,-0.71107 3.20032,-0.71107 z" />
      <path
         id="path1169"
         d="m 175.22755,95.290308 -1.82883,20.015312 h 9.0935 c 2.16746,0 3.84382,0.18609 5.02915,0.55863 1.2192,0.37253 2.06576,0.91454 2.5399,1.62574 0.47413,0.7112 0.71106,1.52369 0.71106,2.43809 0,1.45627 -0.59233,2.59113 -1.77766,3.40393 -1.18534,0.8128 -2.81136,1.21904 -4.87723,1.21904 -1.82879,0 -3.64039,-0.28778 -5.43532,-0.86351 -1.76107,-0.57573 -3.31895,-1.35468 -4.67362,-2.33681 l -3.25148,6.29884 c 1.7272,1.2192 3.79302,2.16797 6.19755,2.84531 2.4384,0.64346 4.89421,0.9648 7.36648,0.9648 3.38666,0 6.16329,-0.5415 8.33076,-1.62523 2.20133,-1.1176 3.82735,-2.55702 4.87722,-4.31808 1.04986,-1.79493 1.57458,-3.74229 1.57458,-5.84202 0,-2.09973 -0.49116,-3.97947 -1.4733,-5.63893 -0.98213,-1.65947 -2.55679,-2.96313 -4.72426,-3.91139 -2.13359,-0.98213 -4.96159,-1.4733 -8.48372,-1.4733 h -2.91661 l 0.60099,-6.75669 h 14.81254 v -6.603732 z" />
    </g>
  </g>
</svg>
